<svg width="1440" height="1024" viewBox="0 0 1440 1024" fill="none" xmlns="http://www.w3.org/2000/svg">
<g clip-path="url(#clip0_22_15304)">
<rect width="1440" height="1024" fill="url(#paint0_radial_22_15304)"/>
<path d="M10.0016 -304L9.99993 1163" stroke="white"/>
<path d="M20.0016 -304L19.9999 1163" stroke="white"/>
<path d="M30.0016 -304L29.9999 1163" stroke="white"/>
<path d="M40.0016 -304L39.9999 1163" stroke="white"/>
<path d="M50.0016 -304L49.9999 1163" stroke="white"/>
<path d="M60.0016 -304L59.9999 1163" stroke="white"/>
<path d="M70.0016 -304L69.9999 1163" stroke="white"/>
<path d="M80.0016 -304L79.9999 1163" stroke="white"/>
<path d="M90.0016 -304L89.9999 1163" stroke="white"/>
<path d="M100.002 -304L99.9999 1163" stroke="white"/>
<path d="M110.002 -304L110 1163" stroke="white"/>
<path d="M120.002 -304L120 1163" stroke="white"/>
<path d="M130.002 -304L130 1163" stroke="white"/>
<path d="M140.002 -304L140 1163" stroke="white"/>
<path d="M150.002 -304L150 1163" stroke="white"/>
<path d="M160.002 -304L160 1163" stroke="white"/>
<path d="M170.002 -304L170 1163" stroke="white"/>
<path d="M180.002 -304L180 1163" stroke="white"/>
<path d="M190.002 -304L190 1163" stroke="white"/>
<path d="M200.002 -304L200 1163" stroke="white"/>
<path d="M210.002 -304L210 1163" stroke="white"/>
<path d="M220.002 -304L220 1163" stroke="white"/>
<path d="M230.002 -304L230 1163" stroke="white"/>
<path d="M240.002 -304L240 1163" stroke="white"/>
<path d="M250.002 -304L250 1163" stroke="white"/>
<path d="M260.002 -304L260 1163" stroke="white"/>
<path d="M270.002 -304L270 1163" stroke="white"/>
<path d="M280.002 -304L280 1163" stroke="white"/>
<path d="M290.002 -304L290 1163" stroke="white"/>
<path d="M300.002 -304L300 1163" stroke="white"/>
<path d="M310.002 -304L310 1163" stroke="white"/>
<path d="M320.002 -304L320 1163" stroke="white"/>
<path d="M330.002 -304L330 1163" stroke="white"/>
<path d="M340.002 -304L340 1163" stroke="white"/>
<path d="M350.002 -304L350 1163" stroke="white"/>
<path d="M360.002 -304L360 1163" stroke="white"/>
<path d="M370.002 -304L370 1163" stroke="white"/>
<path d="M380.002 -304L380 1163" stroke="white"/>
<path d="M390.002 -304L390 1163" stroke="white"/>
<path d="M400.002 -304L400 1163" stroke="white"/>
<path d="M410.002 -304L410 1163" stroke="white"/>
<path d="M420.002 -304L420 1163" stroke="white"/>
<path d="M430.002 -304L430 1163" stroke="white"/>
<path d="M440.002 -304L440 1163" stroke="white"/>
<path d="M450.002 -304L450 1163" stroke="white"/>
<path d="M460.002 -304L460 1163" stroke="white"/>
<path d="M470.002 -304L470 1163" stroke="white"/>
<path d="M480.002 -304L480 1163" stroke="white"/>
<path d="M490.002 -304L490 1163" stroke="white"/>
<path d="M500.002 -304L500 1163" stroke="white"/>
<path d="M510.002 -304L510 1163" stroke="white"/>
<path d="M520.002 -304L520 1163" stroke="white"/>
<path d="M530.002 -304L530 1163" stroke="white"/>
<path d="M540.002 -304L540 1163" stroke="white"/>
<path d="M550.002 -304L550 1163" stroke="white"/>
<path d="M560.002 -304L560 1163" stroke="white"/>
<path d="M570.002 -304L570 1163" stroke="white"/>
<path d="M580.002 -304L580 1163" stroke="white"/>
<path d="M590.002 -304L590 1163" stroke="white"/>
<path d="M600.002 -304L600 1163" stroke="white"/>
<path d="M610.002 -304L610 1163" stroke="white"/>
<path d="M620.002 -304L620 1163" stroke="white"/>
<path d="M630.002 -304L630 1163" stroke="white"/>
<path d="M640.002 -304L640 1163" stroke="white"/>
<path d="M650.002 -304L650 1163" stroke="white"/>
<path d="M660.002 -304L660 1163" stroke="white"/>
<path d="M670.002 -304L670 1163" stroke="white"/>
<path d="M680.002 -304L680 1163" stroke="white"/>
<path d="M690.002 -304L690 1163" stroke="white"/>
<path d="M700.002 -304L700 1163" stroke="white"/>
<path d="M710.002 -304L710 1163" stroke="white"/>
<path d="M720.002 -304L720 1163" stroke="white"/>
<path d="M730.002 -304L730 1163" stroke="white"/>
<path d="M740.002 -304L740 1163" stroke="white"/>
<path d="M750.002 -304L750 1163" stroke="white"/>
<path d="M760.002 -304L760 1163" stroke="white"/>
<path d="M770.002 -304L770 1163" stroke="white"/>
<path d="M780.002 -304L780 1163" stroke="white"/>
<path d="M790.002 -304L790 1163" stroke="white"/>
<path d="M800.002 -304L800 1163" stroke="white"/>
<path d="M810.002 -304L810 1163" stroke="white"/>
<path d="M820.002 -304L820 1163" stroke="white"/>
<path d="M830.002 -304L830 1163" stroke="white"/>
<path d="M840.002 -304L840 1163" stroke="white"/>
<path d="M850.002 -304L850 1163" stroke="white"/>
<path d="M860.002 -304L860 1163" stroke="white"/>
<path d="M870.002 -304L870 1163" stroke="white"/>
<path d="M880.002 -304L880 1163" stroke="white"/>
<path d="M890.002 -304L890 1163" stroke="white"/>
<path d="M900.002 -304L900 1163" stroke="white"/>
<path d="M910.002 -304L910 1163" stroke="white"/>
<path d="M920.002 -304L920 1163" stroke="white"/>
<path d="M930.002 -304L930 1163" stroke="white"/>
<path d="M940.002 -304L940 1163" stroke="white"/>
<path d="M950.002 -304L950 1163" stroke="white"/>
<path d="M960.002 -304L960 1163" stroke="white"/>
<path d="M970.002 -304L970 1163" stroke="white"/>
<path d="M980.002 -304L980 1163" stroke="white"/>
<path d="M990.002 -304L990 1163" stroke="white"/>
<path d="M1000 -304L1000 1163" stroke="white"/>
<path d="M1010 -304L1010 1163" stroke="white"/>
<path d="M1020 -304L1020 1163" stroke="white"/>
<path d="M1030 -304L1030 1163" stroke="white"/>
<path d="M1040 -304L1040 1163" stroke="white"/>
<path d="M1050 -304L1050 1163" stroke="white"/>
<path d="M1060 -304L1060 1163" stroke="white"/>
<path d="M1070 -304L1070 1163" stroke="white"/>
<path d="M1080 -304L1080 1163" stroke="white"/>
<path d="M1090 -304L1090 1163" stroke="white"/>
<path d="M1100 -304L1100 1163" stroke="white"/>
<path d="M1110 -304L1110 1163" stroke="white"/>
<path d="M1120 -304L1120 1163" stroke="white"/>
<path d="M1130 -304L1130 1163" stroke="white"/>
<path d="M1140 -304L1140 1163" stroke="white"/>
<path d="M1150 -304L1150 1163" stroke="white"/>
<path d="M1160 -304L1160 1163" stroke="white"/>
<path d="M1170 -304L1170 1163" stroke="white"/>
<path d="M1180 -304L1180 1163" stroke="white"/>
<path d="M1190 -304L1190 1163" stroke="white"/>
<path d="M1200 -304L1200 1163" stroke="white"/>
<path d="M1210 -304L1210 1163" stroke="white"/>
<path d="M1220 -304L1220 1163" stroke="white"/>
<path d="M1230 -304L1230 1163" stroke="white"/>
<path d="M1240 -304L1240 1163" stroke="white"/>
<path d="M1250 -304L1250 1163" stroke="white"/>
<path d="M1260 -304L1260 1163" stroke="white"/>
<path d="M1270 -304L1270 1163" stroke="white"/>
<path d="M1280 -304L1280 1163" stroke="white"/>
<path d="M1290 -304L1290 1163" stroke="white"/>
<path d="M1300 -304L1300 1163" stroke="white"/>
<path d="M1310 -304L1310 1163" stroke="white"/>
<path d="M1320 -304L1320 1163" stroke="white"/>
<path d="M1330 -304L1330 1163" stroke="white"/>
<path d="M1340 -304L1340 1163" stroke="white"/>
<path d="M1350 -304L1350 1163" stroke="white"/>
<path d="M1360 -304L1360 1163" stroke="white"/>
<path d="M1370 -304L1370 1163" stroke="white"/>
<path d="M1380 -304L1380 1163" stroke="white"/>
<path d="M1390 -304L1390 1163" stroke="white"/>
<path d="M1400 -304L1400 1163" stroke="white"/>
<path d="M1410 -304L1410 1163" stroke="white"/>
<path d="M1420 -304L1420 1163" stroke="white"/>
<path d="M1430 -304L1430 1163" stroke="white"/>
<path d="M1467 10.0025L0 10.0008" stroke="white"/>
<path d="M1467 20.0025L0 20.0008" stroke="white"/>
<path d="M1467 30.0025L0 30.0008" stroke="white"/>
<path d="M1467 40.0025L0 40.0008" stroke="white"/>
<path d="M1467 50.0025L0 50.0008" stroke="white"/>
<path d="M1467 60.0025L0 60.0008" stroke="white"/>
<path d="M1467 70.0025L0 70.0008" stroke="white"/>
<path d="M1467 80.0025L0 80.0008" stroke="white"/>
<path d="M1467 90.0025L0 90.0008" stroke="white"/>
<path d="M1467 100.003L0 100.001" stroke="white"/>
<path d="M1467 110.003L0 110.001" stroke="white"/>
<path d="M1467 120.003L0 120.001" stroke="white"/>
<path d="M1467 130.003L0 130.001" stroke="white"/>
<path d="M1467 140.003L0 140.001" stroke="white"/>
<path d="M1467 150.003L0 150.001" stroke="white"/>
<path d="M1467 160.003L0 160.001" stroke="white"/>
<path d="M1467 170.003L0 170.001" stroke="white"/>
<path d="M1467 180.003L-1.52588e-05 180.001" stroke="white"/>
<path d="M1467 190.003L-1.52588e-05 190.001" stroke="white"/>
<path d="M1467 200.003L-1.52588e-05 200.001" stroke="white"/>
<path d="M1467 210.003L-1.52588e-05 210.001" stroke="white"/>
<path d="M1467 220.003L-1.52588e-05 220.001" stroke="white"/>
<path d="M1467 230.003L-1.52588e-05 230.001" stroke="white"/>
<path d="M1467 240.003L-1.52588e-05 240.001" stroke="white"/>
<path d="M1467 250.003L-1.52588e-05 250.001" stroke="white"/>
<path d="M1467 260.003L-1.52588e-05 260.001" stroke="white"/>
<path d="M1467 270.003L-1.52588e-05 270.001" stroke="white"/>
<path d="M1467 280.003L-1.52588e-05 280.001" stroke="white"/>
<path d="M1467 290.003L-1.52588e-05 290.001" stroke="white"/>
<path d="M1467 300.003L-1.52588e-05 300.001" stroke="white"/>
<path d="M1467 310.003L-1.52588e-05 310.001" stroke="white"/>
<path d="M1467 320.003L-1.52588e-05 320.001" stroke="white"/>
<path d="M1467 330.003L-1.52588e-05 330.001" stroke="white"/>
<path d="M1467 340.003L-1.52588e-05 340.001" stroke="white"/>
<path d="M1467 350.003L-1.52588e-05 350.001" stroke="white"/>
<path d="M1467 360.003L-1.52588e-05 360.001" stroke="white"/>
<path d="M1467 370.003L-1.52588e-05 370.001" stroke="white"/>
<path d="M1467 380.003L-1.52588e-05 380.001" stroke="white"/>
<path d="M1467 390.003L-1.52588e-05 390.001" stroke="white"/>
<path d="M1467 400.003L-1.52588e-05 400.001" stroke="white"/>
<path d="M1467 410.003L-1.52588e-05 410.001" stroke="white"/>
<path d="M1467 420.003L-1.52588e-05 420.001" stroke="white"/>
<path d="M1467 430.003L-1.52588e-05 430.001" stroke="white"/>
<path d="M1467 440.003L-1.52588e-05 440.001" stroke="white"/>
<path d="M1467 450.003L-1.52588e-05 450.001" stroke="white"/>
<path d="M1467 460.003L-1.52588e-05 460.001" stroke="white"/>
<path d="M1467 470.003L-1.52588e-05 470.001" stroke="white"/>
<path d="M1467 480.003L-1.52588e-05 480.001" stroke="white"/>
<path d="M1467 490.003L-1.52588e-05 490.001" stroke="white"/>
<path d="M1467 500.003L-1.52588e-05 500.001" stroke="white"/>
<path d="M1467 510.003L-1.52588e-05 510.001" stroke="white"/>
<path d="M1467 520.003L-1.52588e-05 520.001" stroke="white"/>
<path d="M1467 530.003L-3.05176e-05 530.001" stroke="white"/>
<path d="M1467 540.003L-3.05176e-05 540.001" stroke="white"/>
<path d="M1467 550.003L-3.05176e-05 550.001" stroke="white"/>
<path d="M1467 560.003L-3.05176e-05 560.001" stroke="white"/>
<path d="M1467 570.003L-3.05176e-05 570.001" stroke="white"/>
<path d="M1467 580.003L-3.05176e-05 580.001" stroke="white"/>
<path d="M1467 590.003L-3.05176e-05 590.001" stroke="white"/>
<path d="M1467 600.003L-3.05176e-05 600.001" stroke="white"/>
<path d="M1467 610.003L-3.05176e-05 610.001" stroke="white"/>
<path d="M1467 620.003L-3.05176e-05 620.001" stroke="white"/>
<path d="M1467 630.003L-3.05176e-05 630.001" stroke="white"/>
<path d="M1467 640.003L-3.05176e-05 640.001" stroke="white"/>
<path d="M1467 650.003L-3.05176e-05 650.001" stroke="white"/>
<path d="M1467 660.003L-3.05176e-05 660.001" stroke="white"/>
<path d="M1467 670.003L-3.05176e-05 670.001" stroke="white"/>
<path d="M1467 680.003L-3.05176e-05 680.001" stroke="white"/>
<path d="M1467 690.003L-3.05176e-05 690.001" stroke="white"/>
<path d="M1467 700.003L-3.05176e-05 700.001" stroke="white"/>
<path d="M1467 710.003L-3.05176e-05 710.001" stroke="white"/>
<path d="M1467 720.003L-3.05176e-05 720.001" stroke="white"/>
<path d="M1467 730.003L-3.05176e-05 730.001" stroke="white"/>
<path d="M1467 740.003L-3.05176e-05 740.001" stroke="white"/>
<path d="M1467 750.003L-3.05176e-05 750.001" stroke="white"/>
<path d="M1467 760.003L-3.05176e-05 760.001" stroke="white"/>
<path d="M1467 770.003L-3.05176e-05 770.001" stroke="white"/>
<path d="M1467 780.003L-3.05176e-05 780.001" stroke="white"/>
<path d="M1467 790.003L-3.05176e-05 790.001" stroke="white"/>
<path d="M1467 800.003L-3.05176e-05 800.001" stroke="white"/>
<path d="M1467 810.003L-3.05176e-05 810.001" stroke="white"/>
<path d="M1467 820.003L-3.05176e-05 820.001" stroke="white"/>
<path d="M1467 830.003L-3.05176e-05 830.001" stroke="white"/>
<path d="M1467 840.003L-3.05176e-05 840.001" stroke="white"/>
<path d="M1467 850.003L-3.05176e-05 850.001" stroke="white"/>
<path d="M1467 860.003L-3.05176e-05 860.001" stroke="white"/>
<path d="M1467 870.003L-3.05176e-05 870.001" stroke="white"/>
<path d="M1467 880.003L-4.57764e-05 880.001" stroke="white"/>
<path d="M1467 890.003L-4.57764e-05 890.001" stroke="white"/>
<path d="M1467 900.003L-4.57764e-05 900.001" stroke="white"/>
<path d="M1467 910.003L-4.57764e-05 910.001" stroke="white"/>
<path d="M1467 920.003L-4.57764e-05 920.001" stroke="white"/>
<path d="M1467 930.003L-4.57764e-05 930.001" stroke="white"/>
<path d="M1467 940.003L-4.57764e-05 940.001" stroke="white"/>
<path d="M1467 950.003L-4.57764e-05 950.001" stroke="white"/>
<path d="M1467 960.003L-4.57764e-05 960.001" stroke="white"/>
<path d="M1467 970.003L-4.57764e-05 970.001" stroke="white"/>
<path d="M1467 980.003L-4.57764e-05 980.001" stroke="white"/>
<path d="M1467 990.003L-4.57764e-05 990.001" stroke="white"/>
<path d="M1467 1000L-4.57764e-05 1000" stroke="white"/>
<path d="M1467 1010L-4.57764e-05 1010" stroke="white"/>
<path d="M1467 1020L-4.57764e-05 1020" stroke="white"/>
</g>
<defs>
<radialGradient id="paint0_radial_22_15304" cx="0" cy="0" r="1" gradientUnits="userSpaceOnUse" gradientTransform="translate(720 512) rotate(90) scale(512 720)">
<stop stop-color="white" stop-opacity="0"/>
<stop offset="1" stop-color="#EEF0F4"/>
</radialGradient>
<clipPath id="clip0_22_15304">
<rect width="1440" height="1024" fill="white"/>
</clipPath>
</defs>
</svg>
