<svg width="93" height="56" viewBox="0 0 93 56" fill="none" xmlns="http://www.w3.org/2000/svg">
    <path d="M12.3778 41V21.3636H16.8011V24.7003H17.0312C17.4403 23.5753 18.1179 22.6974 19.0639 22.0668C20.0099 21.4276 21.1392 21.108 22.4517 21.108C23.7812 21.108 24.902 21.4318 25.8139 22.0795C26.7344 22.7187 27.3821 23.5923 27.7571 24.7003H27.9616C28.3963 23.6094 29.1293 22.7401 30.1605 22.0923C31.2003 21.4361 32.4318 21.108 33.8551 21.108C35.6619 21.108 37.1364 21.679 38.2784 22.821C39.4205 23.9631 39.9915 25.6293 39.9915 27.8196V41H35.3509V28.5355C35.3509 27.3168 35.027 26.4261 34.3793 25.8636C33.7315 25.2926 32.9389 25.0071 32.0014 25.0071C30.8849 25.0071 30.0114 25.3565 29.3807 26.0554C28.7585 26.7457 28.4474 27.6449 28.4474 28.7528V41H23.9091V28.3438C23.9091 27.3295 23.6023 26.5199 22.9886 25.9148C22.3835 25.3097 21.5909 25.0071 20.6108 25.0071C19.946 25.0071 19.3409 25.1776 18.7955 25.5185C18.25 25.8509 17.8153 26.3239 17.4915 26.9375C17.1676 27.5426 17.0057 28.25 17.0057 29.0597V41H12.3778ZM44.6864 41V21.3636H49.3143V41H44.6864ZM47.0131 18.5767C46.2802 18.5767 45.6495 18.3338 45.1211 17.848C44.5927 17.3537 44.3285 16.7614 44.3285 16.071C44.3285 15.3722 44.5927 14.7798 45.1211 14.294C45.6495 13.7997 46.2802 13.5526 47.0131 13.5526C47.7546 13.5526 48.3853 13.7997 48.9052 14.294C49.4336 14.7798 49.6978 15.3722 49.6978 16.071C49.6978 16.7614 49.4336 17.3537 48.9052 17.848C48.3853 18.3338 47.7546 18.5767 47.0131 18.5767ZM58.701 14.8182V41H54.0732V14.8182H58.701ZM72.0252 41.3835C70.1076 41.3835 68.4457 40.9616 67.0394 40.1179C65.6332 39.2741 64.5423 38.0937 63.7667 36.5767C62.9996 35.0597 62.6161 33.2869 62.6161 31.2585C62.6161 29.2301 62.9996 27.4531 63.7667 25.9276C64.5423 24.402 65.6332 23.2173 67.0394 22.3736C68.4457 21.5298 70.1076 21.108 72.0252 21.108C73.9428 21.108 75.6048 21.5298 77.011 22.3736C78.4173 23.2173 79.5039 24.402 80.271 25.9276C81.0465 27.4531 81.4343 29.2301 81.4343 31.2585C81.4343 33.2869 81.0465 35.0597 80.271 36.5767C79.5039 38.0937 78.4173 39.2741 77.011 40.1179C75.6048 40.9616 73.9428 41.3835 72.0252 41.3835ZM72.0508 37.6761C73.0906 37.6761 73.9599 37.3906 74.6587 36.8196C75.3576 36.2401 75.8775 35.4645 76.2184 34.4929C76.5678 33.5213 76.7425 32.4389 76.7425 31.2457C76.7425 30.044 76.5678 28.9574 76.2184 27.9858C75.8775 27.0057 75.3576 26.2259 74.6587 25.6463C73.9599 25.0668 73.0906 24.777 72.0508 24.777C70.9854 24.777 70.0991 25.0668 69.3917 25.6463C68.6928 26.2259 68.1687 27.0057 67.8192 27.9858C67.4783 28.9574 67.3079 30.044 67.3079 31.2457C67.3079 32.4389 67.4783 33.5213 67.8192 34.4929C68.1687 35.4645 68.6928 36.2401 69.3917 36.8196C70.0991 37.3906 70.9854 37.6761 72.0508 37.6761Z" fill="#2D333E"/>
    </svg>
    